Patient4_TMGait_0pt7_02_right_21_GRF.mot
version=1
nRows=59
nColumns=19
inDegrees=no
endheader
time	F1x	F1y	F1z	M1x	M1y	M1z	F2x	F2y	F2z	M2x	M2y	M2z	EC1x	EC1y	EC1z	EC2x	EC2y	EC2z
23.25	-21.9594	788.073	61.9739	-281.9377	-72.3347	848.4822	2.8248	-22.7232	-16.6927	0.1171	6.2704	-22.5593	-0.0592	0.0182	-0.0073	-0.0462	0.0165	0.9585
23.262	-14.6514	780.0083	61.976	-279.5815	-69.7867	836.8341	1.6445	-12.7694	-10.871	0.87302	4.1585	-12.2882	-0.0592	0.0182	-0.0073	-0.0462	0.0165	0.9585
23.274	-7.8044	770.804	61.6692	-276.7164	-66.8859	823.0834	0.68156	-4.3252	-5.9801	1.5363	2.3909	-3.5889	-0.0592	0.0182	-0.0073	-0.0462	0.0165	0.9585
23.286	-1.7571	760.883	61.0695	-273.4625	-63.7732	807.8464	-0.030293	2.1361	-2.2836	2.0677	1.0618	3.0575	-0.0592	0.0182	-0.0073	-0.0462	0.0165	0.9585
23.298	3.4104	750.7198	60.2411	-269.9833	-60.5826	791.8659	-0.50787	6.6288	0.24248	2.4609	0.16643	7.6683	-0.0592	0.0182	-0.0073	-0.0462	0.0165	0.9585
23.31	7.7755	740.8428	59.2661	-266.4774	-57.4188	775.9102	-0.80087	9.42	1.7749	2.7252	-0.3564	10.5252	-0.0592	0.0182	-0.0073	-0.0462	0.0165	0.9585
23.322	11.4718	731.7961	58.2283	-263.1539	-54.3662	760.7085	-0.96138	10.8906	2.551	2.8761	-0.59414	12.0251	-0.0592	0.0182	-0.0073	-0.0462	0.0165	0.9585
23.334	14.6714	724.0764	57.195	-260.2052	-51.4716	746.8903	-1.0397	11.3902	2.8096	2.9222	-0.6412	12.5146	-0.0592	0.0182	-0.0073	-0.0462	0.0165	0.9585
23.346	17.5297	718.0873	56.2329	-257.7871	-48.7759	734.9324	-1.0791	11.1968	2.7456	2.8638	-0.56672	12.2763	-0.0592	0.0182	-0.0073	-0.0462	0.0165	0.9585
23.358	20.1721	714.0569	55.3979	-255.9907	-46.3078	725.1085	-1.0878	10.4802	2.5161	2.6862	-0.4336	11.4712	-0.0592	0.0182	-0.0073	-0.0462	0.0165	0.9585
23.37	22.7286	712.0622	54.7526	-254.8404	-44.0942	717.5229	-1.0945	9.3166	2.218	2.3617	-0.27518	10.1605	-0.0592	0.0182	-0.0073	-0.0462	0.0165	0.9585
23.382	25.287	711.9835	54.3785	-254.2791	-42.1826	712.0643	-1.0791	7.7193	1.9201	1.8606	-0.1301	8.3223	-0.0592	0.0182	-0.0073	-0.0462	0.0165	0.9585
23.394	27.9154	713.5408	54.3649	-254.1882	-40.6317	708.4453	-1.0315	5.6855	1.6591	1.1621	-0.020893	5.9384	-0.0592	0.0182	-0.0073	-0.0462	0.0165	0.9585
23.406	30.6668	716.378	54.8239	-254.4204	-39.5278	706.3059	-0.90263	3.2368	1.4657	0.27002	0.0084702	3.0183	-0.0592	0.0182	-0.0073	-0.0462	0.0165	0.9585
23.418	33.5798	720.0943	55.8376	-254.8221	-38.9349	705.2366	-0.64646	0.52214	1.3627	-0.75494	-0.091323	-0.25463	-0.0592	0.0182	-0.0073	-0.0462	0.0165	0.9585
23.43	36.653	724.303	57.4618	-255.2544	-38.9069	704.8529	-0.17104	-2.1298	1.3736	-1.7712	-0.38595	-3.4843	-0.0592	0.0182	-0.0073	-0.0462	0.0165	0.9585
23.442	39.88	728.6697	59.6435	-255.6122	-39.3965	704.8322	0.58389	-4.0627	1.5379	-2.5092	-0.95206	-5.8709	-0.0592	0.0182	-0.0073	-0.0462	0.0165	0.9585
23.454	43.2013	732.905	62.2613	-255.8196	-40.3031	704.9059	1.6838	-4.2239	1.8934	-2.5425	-1.8625	-6.1356	-0.0592	0.0182	-0.0073	-0.0462	0.0165	0.9585
23.466	46.5275	736.7563	65.1197	-255.8239	-41.468	704.8344	3.1222	-1.0754	2.4972	-1.2557	-3.18	-2.3828	-0.0592	0.0182	-0.0073	-0.0462	0.0165	0.9585
23.478	49.7482	739.9152	68.0071	-255.5603	-42.7215	704.3336	4.8258	7.3739	3.381	2.1469	-4.905	7.8334	-0.0592	0.0182	-0.0073	-0.0462	0.0165	0.9585
23.49	52.7452	742.0054	70.6554	-254.9444	-43.8457	703.0353	6.5679	23.4772	4.5527	8.5984	-6.941	27.4158	-0.0592	0.0182	-0.0073	-0.0462	0.0165	0.9585
23.502	55.4211	742.4813	72.8186	-253.8345	-44.6449	700.4068	7.9274	49.5678	5.9413	19.0232	-9.0148	59.2553	-0.0592	0.0182	-0.0073	-0.0462	0.0165	0.9585
23.514	57.7228	740.5108	74.2509	-251.9924	-44.9154	695.6733	8.2106	87.3901	7.38	34.1027	-10.6238	105.528	-0.0592	0.0182	-0.0073	-0.0462	0.0165	0.9585
23.526	59.6232	734.9016	74.7074	-249.0543	-44.4545	687.7261	6.4206	137.1262	8.521	53.891	-10.9357	166.4927	-0.0592	0.0182	-0.0073	-0.0462	0.0165	0.9585
23.538	61.0979	724.1239	73.9501	-244.5413	-43.074	675.1671	1.3209	196.228	8.9	77.3536	-8.9115	239.0787	-0.0592	0.0182	-0.0073	-0.0462	0.0165	0.9585
23.55	62.114	706.4354	71.7624	-237.8999	-40.6112	656.4129	-7.5018	258.623	7.9586	102.0446	-3.722	315.8668	-0.0592	0.0182	-0.0073	-0.0462	0.0165	0.9585
23.562	62.5654	680.1693	68.0616	-228.5878	-37.0557	629.9657	-18.4665	315.4046	4.8234	124.4118	4.9179	385.8074	-0.0592	0.0182	-0.0073	-0.0462	0.0165	0.9585
23.574	62.2818	644.2243	62.9187	-216.2312	-32.5577	594.8522	-29.1111	359.9284	-0.51366	141.8282	15.9043	440.4685	-0.0592	0.0182	-0.0073	-0.0462	0.0165	0.9585
23.586	61.0474	598.612	56.6561	-200.7953	-27.4901	551.1574	-38.0726	391.7839	-7.0515	154.1403	27.5212	479.0676	-0.0592	0.0182	-0.0073	-0.0462	0.0165	0.9585
23.598	58.7311	544.4148	49.7562	-182.5942	-22.315	499.9152	-44.8814	415.1335	-14.05	163.0033	38.6833	506.6175	-0.0592	0.0182	-0.0073	-0.0462	0.0165	0.9585
23.61	55.231	483.604	42.6909	-162.2352	-17.4597	442.9832	-49.5051	435.2112	-20.334	170.5488	48.08	529.5296	-0.0592	0.0182	-0.0073	-0.0462	0.0165	0.9585
23.622	50.5123	418.659	35.7805	-140.51	-13.1918	382.6436	-52.1925	456.2383	-25.523	178.4664	55.3427	553.0535	-0.0592	0.0182	-0.0073	-0.0462	0.0165	0.9585
23.634	44.5384	352.3544	29.238	-118.3211	-9.689	321.4523	-53.1831	480.4182	-29.2376	187.6511	60.1974	579.8553	-0.0592	0.0182	-0.0073	-0.0462	0.0165	0.9585
23.646	37.4462	287.5854	23.2291	-96.6273	-7.0388	262.0109	-52.9667	508.39	-31.9392	198.3203	63.3358	610.7898	-0.0592	0.0182	-0.0073	-0.0462	0.0165	0.9585
23.658	29.5869	227.1382	17.8961	-76.3598	-5.2339	206.8127	-51.8911	539.8043	-34.0959	210.29	65.4855	645.4487	-0.0592	0.0182	-0.0073	-0.0462	0.0165	0.9585
23.67	21.5793	173.2768	13.3748	-58.2826	-4.1695	157.8055	-50.4046	573.5332	-36.5122	223.049	67.7184	682.5875	-0.0592	0.0182	-0.0073	-0.0462	0.0165	0.9585
23.682	14.0986	127.4151	9.7502	-42.874	-3.6811	116.1791	-48.8457	607.8784	-39.6292	235.9055	70.6855	720.193	-0.0592	0.0182	-0.0073	-0.0462	0.0165	0.9585
23.694	7.6892	89.919	6.9946	-30.2675	-3.5574	82.1826	-47.5927	641.2413	-43.6865	248.2155	74.7789	756.4162	-0.0592	0.0182	-0.0073	-0.0462	0.0165	0.9585
23.706	2.6031	60.4084	4.9544	-20.3424	-3.575	55.4281	-46.753	672.4737	-48.4484	259.5698	79.7793	789.8778	-0.0592	0.0182	-0.0073	-0.0462	0.0165	0.9585
23.718	-1.0454	38.0226	3.46	-12.8138	-3.5501	35.1272	-46.3618	701.1239	-53.4397	269.8397	85.1541	820.0507	-0.0592	0.0182	-0.0073	-0.0462	0.0165	0.9585
23.73	-3.2562	21.7257	2.3293	-7.3368	-3.3284	20.3559	-46.2526	726.9387	-58.1829	278.9896	90.2959	846.5844	-0.0592	0.0182	-0.0073	-0.0462	0.0165	0.9585
23.742	-4.1419	10.4945	1.4589	-3.5668	-2.8664	10.1803	-46.3393	749.5601	-62.3146	286.9285	94.7433	869.0876	-0.0592	0.0182	-0.0073	-0.0462	0.0165	0.9585
23.754	-4.0241	3.3692	0.80119	-1.1788	-2.2391	3.7102	-46.4541	768.4285	-65.6562	293.4777	98.2265	886.9357	-0.0592	0.0182	-0.0073	-0.0462	0.0165	0.9585
23.766	-3.3898	-0.53578	0.35045	0.13027	-1.6133	0.15139	-46.5156	783.062	-68.1338	298.4662	100.6324	899.6401	-0.0592	0.0182	-0.0073	-0.0462	0.0165	0.9585
23.778	-2.5533	-2.1674	0.087848	0.67693	-1.0895	-1.3483	-46.393	793.182	-69.8299	301.8022	102.002	906.9173	-0.0592	0.0182	-0.0073	-0.0462	0.0165	0.9585
23.79	-1.7395	-2.3401	-0.049353	0.73553	-0.68693	-1.4905	-45.9795	799.0612	-70.7816	303.5927	102.3511	909.1051	-0.0592	0.0182	-0.0073	-0.0462	0.0165	0.9585
23.802	-1.032	-1.7233	-0.086892	0.52895	-0.41055	-0.91715	-45.1719	801.3284	-71.1082	304.0855	101.781	906.9181	-0.0592	0.0182	-0.0073	-0.0462	0.0165	0.9585
23.814	-0.50892	-0.769	-0.082202	0.21003	-0.22886	-0.027033	-43.9137	800.8395	-70.8497	303.6113	100.3348	901.337	-0.0592	0.0182	-0.0073	-0.0462	0.0165	0.9585
23.826	-0.12903	0.20537	-0.038847	-0.11696	-0.13076	0.85666	-42.1569	798.4496	-70.1208	302.4963	98.1377	893.3329	-0.0592	0.0182	-0.0073	-0.0462	0.0165	0.9585
23.838	0.077449	1.0737	0.0061231	-0.40957	-0.091765	1.6568	-39.9403	794.9057	-68.9642	301.026	95.2743	883.7588	-0.0592	0.0182	-0.0073	-0.0462	0.0165	0.9585
23.85	0.18651	1.7494	0.064445	-0.6428	-0.10333	2.2664	-37.3256	790.7856	-67.5106	299.4131	91.9202	873.2816	-0.0592	0.0182	-0.0073	-0.0462	0.0165	0.9585
23.862	0.19469	2.2638	0.10672	-0.82332	-0.13558	2.744	-34.4084	786.5027	-65.8461	297.8005	88.2147	862.382	-0.0592	0.0182	-0.0073	-0.0462	0.0165	0.9585
23.874	0.16627	2.6142	0.14941	-0.94998	-0.17779	3.0467	-31.2871	782.2973	-64.1029	296.2619	84.3384	851.3419	-0.0592	0.0182	-0.0073	-0.0462	0.0165	0.9585
23.886	0.07894	2.8506	0.1722	-1.0332	-0.21437	3.2549	-28.0019	778.3291	-62.341	294.8352	80.3811	840.3571	-0.0592	0.0182	-0.0073	-0.0462	0.0165	0.9585
23.898	-0.0098536	2.9582	0.1936	-1.0713	-0.25174	3.3355	-24.5712	774.6062	-60.6054	293.5005	76.4076	829.4746	-0.0592	0.0182	-0.0073	-0.0462	0.0165	0.9585
23.91	-0.13102	2.9597	0.20853	-1.0677	-0.29737	3.3338	-20.9922	770.9494	-58.8949	292.1685	72.4226	818.544	-0.0592	0.0182	-0.0073	-0.0462	0.0165	0.9585
23.922	-0.24945	2.8222	0.23121	-1.0103	-0.35803	3.171	-17.2196	767.0177	-57.2172	290.6885	68.4201	807.2499	-0.0592	0.0182	-0.0073	-0.0462	0.0165	0.9585
23.934	-0.40133	2.5084	0.26049	-0.88277	-0.44525	2.816	-13.1989	762.4076	-55.5862	288.8897	64.394	795.2213	-0.0592	0.0182	-0.0073	-0.0462	0.0165	0.9585
23.946	-0.56263	1.9267	0.29283	-0.65446	-0.54791	2.1313	-8.8811	756.8124	-54.0434	286.6394	60.3719	782.1911	-0.0592	0.0182	-0.0073	-0.0462	0.0165	0.9585
